<?xml version="1.0" standalone="no"?>
<!DOCTYPE svg PUBLIC "-//W3C//DTD SVG 20010904//EN"
 "http://www.w3.org/TR/2001/REC-SVG-20010904/DTD/svg10.dtd">
<svg version="1.0" xmlns="http://www.w3.org/2000/svg"
 width="632.000000pt" height="395.000000pt" viewBox="0 0 632.000000 395.000000"
 preserveAspectRatio="xMidYMid meet">

<g transform="translate(0.000000,395.000000) scale(0.100000,-0.100000)"
fill="#000000" stroke="none">
<path d="M1325 2451 c-3 -5 8 -20 25 -33 l31 -24 -39 -17 c-55 -24 -82 -77
-82 -160 0 -57 -3 -69 -25 -91 -22 -22 -25 -33 -25 -100 0 -98 9 -119 59 -140
l41 -16 1 -107 1 -108 91 -82 92 -83 108 0 107 0 95 86 95 86 0 109 c0 100 2
109 19 109 10 0 30 9 45 21 25 19 26 25 26 113 0 80 -3 95 -20 111 -17 15 -20
31 -20 91 0 40 -4 84 -10 98 -15 39 -80 106 -104 106 -11 0 -34 9 -51 20 -28
18 -47 20 -242 20 -118 0 -214 -4 -218 -9z m447 -38 c10 -9 18 -24 18 -35 0
-25 19 -23 29 5 8 21 10 21 55 -24 l46 -46 0 -82 c0 -62 -3 -81 -14 -81 -7 0
-19 13 -26 29 -15 38 -46 66 -92 86 -28 11 -75 15 -190 15 -182 0 -221 -13
-264 -86 -14 -24 -30 -44 -35 -44 -5 0 -9 33 -9 74 0 64 3 76 24 99 14 15 45
32 70 39 51 13 57 28 24 51 -21 15 -9 16 161 16 158 1 187 -1 203 -16z m18
-181 c19 -9 45 -32 57 -51 22 -33 23 -41 23 -271 l0 -237 -84 -76 -84 -77 -99
0 -99 0 -87 81 -88 82 3 233 c3 259 4 261 78 312 31 20 44 22 189 22 129 0
162 -3 191 -18z m-485 -217 c0 -88 -2 -100 -18 -103 -36 -7 -47 16 -47 102 0
87 10 109 45 104 19 -3 20 -10 20 -103z m647 88 c14 -13 18 -31 18 -86 0 -75
-15 -107 -52 -107 -16 0 -18 10 -18 105 0 91 2 105 17 105 9 0 25 -7 35 -17z"/>
<path d="M1448 2098 c-16 -17 -28 -41 -28 -54 0 -27 34 -54 68 -54 19 0 23 -5
20 -22 -4 -28 -45 -38 -54 -14 -3 9 -12 16 -20 16 -23 0 -16 -28 11 -46 14 -9
25 -23 25 -30 0 -20 19 -17 27 4 4 9 15 23 25 30 20 15 25 67 6 78 -6 4 -25
10 -42 14 -22 4 -31 12 -31 25 0 26 44 34 57 11 12 -22 28 -20 28 4 0 10 -9
24 -20 30 -11 6 -20 17 -20 25 0 24 -23 16 -52 -17z"/>
<path d="M1710 2120 c0 -6 -12 -22 -27 -34 -24 -21 -26 -27 -18 -52 8 -21 20
-31 47 -39 46 -13 54 -21 38 -40 -16 -19 -49 -19 -56 0 -7 17 -34 21 -34 5 0
-6 11 -21 25 -34 14 -13 25 -28 25 -35 0 -6 7 -11 15 -11 8 0 15 7 15 15 0 8
9 19 19 25 49 26 28 96 -31 102 -25 2 -33 8 -33 23 0 27 44 33 62 9 10 -13 16
-15 24 -7 9 9 5 18 -15 38 -14 14 -26 30 -26 35 0 6 -7 10 -15 10 -8 0 -15 -5
-15 -10z"/>
<path d="M1454 1765 c-15 -38 42 -126 94 -146 42 -16 113 -10 149 12 37 23 73
84 73 124 l0 25 -155 0 c-127 0 -157 -3 -161 -15z m286 -31 c0 -9 -17 -34 -39
-55 -35 -35 -44 -39 -90 -39 -44 0 -56 4 -85 33 -19 17 -37 42 -41 55 l-6 22
130 0 c114 0 131 -2 131 -16z"/>
</g>
</svg>
