<?xml version="1.0" standalone="no"?>
<!DOCTYPE svg PUBLIC "-//W3C//DTD SVG 20010904//EN"
 "http://www.w3.org/TR/2001/REC-SVG-20010904/DTD/svg10.dtd">
<svg version="1.0" xmlns="http://www.w3.org/2000/svg"
 width="632.000000pt" height="395.000000pt" viewBox="0 0 632.000000 395.000000"
 preserveAspectRatio="xMidYMid meet">

<g transform="translate(0.000000,395.000000) scale(0.100000,-0.100000)"
fill="#000000" stroke="none">
<path d="M1330 2446 c0 -8 12 -23 27 -34 l27 -19 -25 -8 c-63 -19 -99 -83 -99
-176 0 -51 -4 -64 -22 -79 -19 -15 -23 -30 -26 -94 -5 -98 7 -130 59 -150 l39
-16 0 -104 0 -104 93 -86 92 -86 107 0 108 0 95 86 95 86 0 109 c0 100 2 109
19 109 10 0 30 9 45 21 25 19 26 25 26 113 0 86 -2 94 -25 116 -23 22 -25 31
-25 110 l0 87 -41 47 c-22 25 -49 46 -60 46 -10 0 -36 9 -56 20 -34 18 -57 20
-245 20 -173 0 -208 -2 -208 -14z m442 -33 c10 -9 18 -24 18 -35 0 -25 19 -23
29 5 8 21 10 21 55 -24 l46 -46 0 -82 c0 -62 -3 -81 -14 -81 -7 0 -19 13 -26
29 -15 38 -46 66 -92 86 -28 11 -75 15 -190 15 -182 0 -221 -13 -264 -86 -14
-24 -30 -44 -35 -44 -5 0 -9 33 -9 74 0 64 3 76 24 99 14 15 45 32 70 39 51
13 57 28 24 51 -21 15 -9 16 161 16 158 1 187 -1 203 -16z m18 -181 c19 -9 45
-32 57 -51 22 -33 23 -41 23 -271 l0 -237 -84 -76 -84 -77 -99 0 -99 0 -87 81
-88 82 3 233 c3 259 4 261 78 312 31 20 44 22 189 22 129 0 162 -3 191 -18z
m-485 -217 c0 -88 -2 -100 -18 -103 -36 -7 -47 16 -47 102 0 87 10 109 45 104
19 -3 20 -10 20 -103z m647 88 c14 -13 18 -31 18 -86 0 -75 -15 -107 -52 -107
-16 0 -18 10 -18 105 0 91 2 105 17 105 9 0 25 -7 35 -17z"/>
<path d="M1448 2098 c-16 -17 -28 -41 -28 -54 0 -27 34 -54 68 -54 19 0 23 -5
20 -22 -4 -28 -45 -38 -54 -14 -3 9 -12 16 -20 16 -23 0 -16 -28 11 -46 14 -9
25 -23 25 -30 0 -20 19 -17 27 4 4 9 15 23 25 30 20 15 25 67 6 78 -6 4 -25
10 -42 14 -22 4 -31 12 -31 25 0 26 44 34 57 11 12 -22 28 -20 28 4 0 10 -9
24 -20 30 -11 6 -20 17 -20 25 0 24 -23 16 -52 -17z"/>
<path d="M1710 2120 c0 -6 -12 -22 -27 -34 -24 -21 -26 -27 -18 -52 8 -21 20
-31 47 -39 46 -13 54 -21 38 -40 -16 -19 -49 -19 -56 0 -7 17 -34 21 -34 5 0
-6 11 -21 25 -34 14 -13 25 -28 25 -35 0 -6 7 -11 15 -11 8 0 15 7 15 15 0 8
9 19 19 25 49 26 28 96 -31 102 -25 2 -33 8 -33 23 0 27 44 33 62 9 10 -13 16
-15 24 -7 9 9 5 18 -15 38 -14 14 -26 30 -26 35 0 6 -7 10 -15 10 -8 0 -15 -5
-15 -10z"/>
<path d="M1454 1765 c-15 -38 42 -126 94 -146 42 -16 113 -10 149 12 37 23 73
84 73 124 l0 25 -155 0 c-127 0 -157 -3 -161 -15z m286 -31 c0 -9 -17 -34 -39
-55 -35 -35 -44 -39 -90 -39 -44 0 -56 4 -85 33 -19 17 -37 42 -41 55 l-6 22
130 0 c114 0 131 -2 131 -16z"/>
<path d="M4945 2150 c-77 -17 -114 -72 -115 -173 0 -71 17 -114 59 -150 28
-23 42 -27 94 -27 44 0 71 6 95 20 31 19 32 22 32 85 l0 65 -65 0 c-50 0 -65
-3 -65 -14 0 -10 13 -16 38 -18 33 -3 37 -6 40 -33 3 -38 -7 -53 -44 -64 -45
-12 -91 5 -110 41 -24 47 -16 180 12 209 39 38 134 19 134 -28 0 -7 11 -13 25
-13 27 0 32 18 15 50 -20 37 -92 61 -145 50z"/>
<path d="M2090 1976 l0 -176 25 0 c23 0 24 3 27 68 l3 67 37 3 c37 3 37 3 73
-67 32 -64 38 -71 65 -71 l30 0 -36 73 -36 73 31 31 c42 42 42 90 2 135 -29
32 -31 33 -125 36 l-96 4 0 -176z m172 117 c24 -21 23 -75 -1 -97 -14 -12 -32
-16 -67 -14 l-49 3 -3 49 c-2 27 -1 55 2 62 8 20 95 18 118 -3z"/>
<path d="M2410 1974 l0 -176 94 4 c84 3 97 6 120 27 43 41 33 126 -16 144 -9
3 -6 11 10 29 23 26 29 76 12 108 -14 26 -63 40 -146 40 l-74 0 0 -176z m161
126 c13 -7 19 -21 19 -45 0 -42 -20 -55 -84 -55 l-46 0 0 55 0 55 46 0 c25 0
54 -5 65 -10z m13 -156 c21 -20 20 -63 -1 -86 -12 -13 -30 -18 -70 -18 l-53 0
0 60 0 60 54 0 c36 0 60 -5 70 -16z"/>
<path d="M2721 2128 c7 -13 29 -50 51 -84 21 -34 38 -64 38 -67 0 -3 -22 -42
-50 -86 -27 -44 -50 -83 -50 -86 0 -3 13 -5 28 -5 24 0 33 10 66 65 21 36 40
65 42 65 2 0 20 -29 41 -65 34 -59 40 -65 70 -65 l33 0 -43 68 c-75 115 -73
100 -17 191 28 44 50 83 50 86 0 3 -13 5 -29 5 -26 0 -34 -8 -63 -60 -18 -33
-37 -60 -43 -60 -6 0 -25 27 -43 60 -29 52 -37 60 -63 60 -28 0 -29 -2 -18
-22z"/>
<path d="M3020 2130 c0 -18 7 -20 55 -20 l55 0 0 -155 0 -155 30 0 30 0 0 155
0 155 55 0 c48 0 55 2 55 20 0 19 -7 20 -140 20 -133 0 -140 -1 -140 -20z"/>
<path d="M3350 1975 l0 -175 30 0 30 0 0 70 0 70 38 0 c37 0 39 -2 72 -70 30
-62 37 -70 62 -70 15 0 28 2 28 5 0 3 -17 36 -37 73 l-36 67 31 32 c22 21 32
41 32 62 0 83 -43 111 -170 111 l-80 0 0 -175z m180 115 c11 -11 20 -31 20
-45 0 -41 -33 -65 -90 -65 l-50 0 0 65 0 65 50 0 c37 0 55 -5 70 -20z"/>
<path d="M3725 2023 c-26 -71 -56 -149 -66 -175 l-19 -48 29 0 c24 0 30 6 40
40 l12 41 76 -3 76 -3 12 -35 c9 -29 17 -36 42 -38 l31 -3 -67 175 c-62 166
-67 176 -92 176 -25 0 -30 -9 -74 -127z m104 -22 c11 -36 21 -69 21 -73 0 -9
-94 -11 -102 -2 -4 3 5 39 19 81 14 41 29 71 33 66 4 -4 17 -37 29 -72z"/>
<path d="M4010 1975 l0 -177 79 3 c61 3 86 9 108 25 47 35 67 80 67 149 0 69
-20 114 -67 149 -22 16 -47 22 -108 25 l-79 3 0 -177z m144 125 c35 -13 56
-59 56 -124 0 -94 -36 -136 -115 -136 l-35 0 0 135 0 135 34 0 c19 0 46 -4 60
-10z"/>
<path d="M4340 1975 l0 -175 25 0 25 0 0 175 0 175 -25 0 -25 0 0 -175z"/>
<path d="M4480 1975 l0 -175 28 0 27 0 -3 116 c-2 64 0 120 5 125 5 5 43 -48
86 -116 71 -114 81 -125 108 -125 l29 0 0 175 0 175 -30 0 -29 0 -3 -125 -3
-126 -79 126 c-71 113 -81 125 -107 125 l-29 0 0 -175z"/>
</g>
</svg>
